<?xml version="1.0" encoding="UTF-8" standalone="no"?>
<!DOCTYPE svg PUBLIC "-//W3C//DTD SVG 1.1//EN" "http://www.w3.org/Graphics/SVG/1.1/DTD/svg11.dtd">
<svg width="100%" height="100%" viewBox="0 0 393 394" version="1.1" xmlns="http://www.w3.org/2000/svg" xmlns:xlink="http://www.w3.org/1999/xlink" xml:space="preserve" xmlns:serif="http://www.serif.com/" style="fill-rule:evenodd;clip-rule:evenodd;">
    <g id="Layer-1" serif:id="Layer 1" transform="matrix(4.16667,0,0,4.16667,-1268,-68)">
<g transform="matrix(1,0,0,1,-1.919998,-0.959999)">
            <g transform="matrix(1,0,0,1,365.471,94.407)">
                <path d="M0,-52.264C0,-52.264 -4.129,-51.06 -6.191,-47.622C-6.191,-47.622 -9.801,-41.433 -19.6,-38.854C-19.6,-38.854 -25.104,-35.416 -29.4,-40.918C-29.4,-40.918 -34.9,-46.419 -36.619,-46.419C-36.619,-46.419 -38.682,-47.108 -39.199,-44.357C-39.199,-44.357 -41.434,-37.995 -37.824,-33.009C-37.824,-33.009 -35.074,-26.304 -22.867,-23.038C-22.867,-23.038 -23.729,-18.568 -26.822,-17.88C-26.822,-17.88 -29.744,-15.645 -33.699,-14.957C-33.699,-14.957 -37.137,-13.065 -33.525,-8.082C-33.525,-8.082 -26.648,0.687 -14.615,-7.049C-14.615,-7.049 -9.285,-11.862 -8.082,-12.722C-8.082,-12.722 1.719,-21.149 5.328,-21.491C5.328,-21.491 16.502,-25.274 18.566,-33.525C18.566,-33.525 20.285,-37.824 15.471,-40.745C15.471,-40.745 10.141,-44.529 9.455,-45.731C9.455,-45.731 5.842,-48.997 5.328,-50.373C5.328,-50.373 2.576,-52.951 0,-52.264Z" style="fill:rgb(3,4,5);fill-rule:nonzero;stroke:rgb(3,4,5);stroke-width:2px;"/>
            </g>
            <g transform="matrix(1,0,0,1,365.813,72.5725)">
                <path d="M0,-28.367C0,-28.367 -1.891,-28.711 -8.768,-21.146C-8.768,-21.146 -12.033,-18.053 -15.301,-17.019C-15.301,-17.019 -20.975,-14.957 -22.004,-14.097C-22.004,-14.097 -25.1,-13.24 -23.383,-10.659C-23.383,-10.659 -33.18,-21.834 -36.445,-22.178C-36.445,-22.178 -37.994,-24.068 -38.68,-20.632C-38.68,-20.632 -40.23,-8.08 -26.818,-4.127C-26.818,-4.127 -14.098,0.686 -7.564,-2.234C-7.564,-2.234 9.799,-6.532 15.473,-12.894C15.473,-12.894 17.191,-15.301 14.613,-17.019C14.613,-17.019 9.457,-20.803 7.91,-22.005C7.91,-22.005 2.75,-27.336 2.063,-27.85C2.063,-27.85 0.861,-29.053 0,-28.367" style="fill:rgb(250,188,19);fill-rule:nonzero;"/>
            </g>
            <g transform="matrix(1,0,0,1,344.494,82.1993)">
                <path d="M0,-10.488C0,-10.488 4.299,-8.941 5.5,-9.625C5.5,-9.625 2.58,-4.642 1.547,-4.125C1.547,-4.125 -1.891,-1.547 -5.672,-1.033C-5.672,-1.033 -8.078,-0.342 -4.986,0.688C-4.986,0.688 0.344,1.893 1.377,1.548C1.377,1.548 2.75,2.923 6.533,-1.375C6.533,-1.375 14.957,-8.595 15.473,-10.143C15.473,-10.143 36.447,-17.192 37.65,-21.146C37.65,-21.146 36.104,-16.159 31.977,-13.924C31.977,-13.924 23.898,-8.767 18.91,-7.908C18.91,-7.908 6.018,4.813 4.643,4.125C4.643,4.125 -4.297,10.658 -11.346,2.578C-11.346,2.578 -13.58,-1.033 -9.797,-2.062C-9.283,-2.062 -1.031,-4.642 0,-10.488" style="fill:rgb(250,188,19);fill-rule:nonzero;"/>
            </g>
            <g transform="matrix(0,-1,-1,0,353.463,23.3505)">
                <circle cx="-41.228" cy="0.001" r="41.228" style="fill:none;stroke:rgb(250,188,19);stroke-width:11px;stroke-linecap:round;stroke-linejoin:round;"/>
            </g>
            <g transform="matrix(1,0,0,1,381.338,95.1213)">
                <path d="M0,2.34L-2.355,-0.653L-3.354,0.132C-4.018,0.655 -3.959,1.416 -3.174,2.413C-2.389,3.411 -1.662,3.648 -0.998,3.124L0,2.34ZM-1.432,-4.612L4.064,2.372L0.572,5.12C-1.756,6.952 -3.836,6.704 -5.668,4.376C-7.5,2.048 -7.25,-0.032 -4.924,-1.864L-1.432,-4.612Z" style="fill:rgb(35,31,32);fill-rule:nonzero;"/>
            </g>
            <g transform="matrix(1,0,0,1,369.65,96.0935)">
                <path d="M0,11.276L-1.076,8.976L2.949,7.093L2.68,6.519L-1.346,8.402L-2.42,6.101L1.605,4.218L1.336,3.644L-2.689,5.527L-3.766,3.226L3.135,0L6.9,8.048L0,11.276Z" style="fill:rgb(35,31,32);fill-rule:nonzero;"/>
            </g>
            <g transform="matrix(1,0,0,1,361.953,106.591)">
                <path d="M0,-3.679C-0.676,-3.536 -0.988,-3.036 -0.936,-2.183L-4.059,-1.522C-4.387,-4.048 -3.209,-5.595 -0.525,-6.163C2.371,-6.777 4.127,-5.634 4.74,-2.736C5.354,0.162 4.213,1.919 1.314,2.531C-1.369,3.098 -3.072,2.163 -3.797,-0.28L-0.674,-0.941C-0.373,-0.14 0.113,0.19 0.789,0.048C1.617,-0.128 1.898,-0.837 1.637,-2.079C1.373,-3.321 0.828,-3.854 0,-3.679" style="fill:rgb(35,31,32);fill-rule:nonzero;"/>
            </g>
            <g transform="matrix(1,0,0,1,343.668,105.114)">
                <path d="M0,-1.865L0.041,-0.546L0.701,-1.689L0,-1.865ZM2.021,-3.974L2.355,-4.546L5.434,-3.773L0.189,4.072L-2.271,3.455L-3.186,-5.937L-0.107,-5.164L-0.084,-4.504L2.021,-3.974Z" style="fill:rgb(35,31,32);fill-rule:nonzero;"/>
            </g>
            <g transform="matrix(1,0,0,1,334.584,99.0549)">
                <path d="M0,4.257L0.59,3.132L-0.535,2.542C-0.91,2.346 -1.195,2.435 -1.391,2.81C-1.588,3.185 -1.5,3.47 -1.125,3.667L0,4.257ZM1.77,0.884L2.949,-1.364L5.76,0.111L1.631,7.98L-2.305,5.915C-4.553,4.736 -5.186,3.209 -4.203,1.335C-3.623,0.234 -2.826,-0.34 -1.809,-0.384L-1.549,-3.723L1.262,-2.249L1.045,0.503L1.77,0.884Z" style="fill:rgb(35,31,32);fill-rule:nonzero;"/>
            </g>
            <g transform="matrix(1,0,0,1,327.147,94.851)">
                <path d="M0,-0.294L-0.564,0.899L0.545,0.183L0,-0.294ZM2.764,-1.248L3.32,-1.605L5.705,0.488L-2.539,5.077L-4.447,3.403L-0.977,-5.371L1.41,-3.278L1.131,-2.68L2.764,-1.248Z" style="fill:rgb(35,31,32);fill-rule:nonzero;"/>
            </g>
            <g transform="matrix(1,0,0,1,318.973,87.0122)">
                <path d="M0,3.413L3.127,1.239L2.402,0.196C1.918,-0.499 1.156,-0.483 0.113,0.241C-0.928,0.966 -1.207,1.677 -0.725,2.372L0,3.413ZM7.023,2.393L-0.271,7.469L-2.809,3.821C-4.5,1.39 -4.131,-0.672 -1.699,-2.364C0.732,-4.056 2.795,-3.686 4.486,-1.253L7.023,2.393Z" style="fill:rgb(35,31,32);fill-rule:nonzero;"/>
            </g>
            <g transform="matrix(1,0,0,1,316.527,78.3927)">
                <path d="M0,1.302L-1.037,2.118L0.275,1.97L0,1.302ZM2.898,1.675L3.557,1.605L4.762,4.539L-4.664,4.982L-5.629,2.632L1.385,-3.68L2.59,-0.745L2.074,-0.333L2.898,1.675Z" style="fill:rgb(35,31,32);fill-rule:nonzero;"/>
            </g>
            <g transform="matrix(1,0,0,1,310.563,66.1612)">
                <path d="M0,2.68L3.803,2.443L3.723,1.175C3.67,0.33 3.01,-0.053 1.742,0.027C0.475,0.107 -0.131,0.569 -0.078,1.413L0,2.68ZM6.535,5.451L-2.334,6.006L-2.613,1.573C-2.799,-1.384 -1.414,-2.955 1.543,-3.14C4.5,-3.326 6.07,-1.94 6.256,1.016L6.535,5.451Z" style="fill:rgb(35,31,32);fill-rule:nonzero;"/>
            </g>
            <g transform="matrix(1,0,0,1,309.025,62.5783)">
                <path d="M0,-8.968L2.506,-8.552L1.779,-4.169L2.406,-4.066L3.133,-8.449L5.637,-8.034L4.91,-3.65L5.537,-3.547L6.264,-7.93L8.768,-7.515L7.523,0L-1.244,-1.453L0,-8.968Z" style="fill:rgb(35,31,32);fill-rule:nonzero;"/>
            </g>
            <g transform="matrix(1,0,0,1,314.67,41.3233)">
                <path d="M0,8.577L-3.949,6.54L-2.494,3.72L1.455,5.756C2.582,6.339 3.34,6.253 3.729,5.501C4.117,4.749 3.746,4.082 2.619,3.5L-1.33,1.463L0.125,-1.358L4.072,0.679C6.705,2.037 7.344,4.032 5.986,6.664C4.627,9.298 2.633,9.935 0,8.577" style="fill:rgb(35,31,32);fill-rule:nonzero;"/>
            </g>
            <g transform="matrix(1,0,0,1,321.674,38.403)">
                <path d="M0,-2.971L4.803,1.18L2.727,3.581L-2.076,-0.57L-3.736,1.351L-5.656,-0.309L-0.262,-6.552L1.66,-4.892L0,-2.971Z" style="fill:rgb(35,31,32);fill-rule:nonzero;"/>
            </g>
            <g transform="matrix(0.641633,0.767011,0.767011,-0.641633,329.176,29.0363)">
                <rect x="-2.81" y="-6.012" width="8.887" height="3.174" style="fill:rgb(35,31,32);"/>
            </g>
            <g transform="matrix(1,0,0,1,326.443,33.5205)">
                <path d="M0,-5.981L2.721,-7.616L5.992,-2.176L9.799,-4.465L11.107,-2.289L4.58,1.635L0,-5.981Z" style="fill:rgb(35,31,32);fill-rule:nonzero;"/>
            </g>
            <g transform="matrix(0.376739,0.926319,0.926319,-0.376739,341.943,24.5378)">
                <rect x="-4.239" y="-6.303" width="8.885" height="3.175" style="fill:rgb(35,31,32);"/>
            </g>
            <g transform="matrix(1,0,0,1,342.744,26.2699)">
                <path d="M0,-3.498L0.807,0.224L2.049,-0.045C2.875,-0.225 3.154,-0.935 2.885,-2.176C2.615,-3.416 2.066,-3.947 1.24,-3.767L0,-3.498ZM-1.756,3.379L-3.641,-5.305L0.701,-6.248C3.596,-6.877 5.357,-5.744 5.986,-2.85C6.615,0.046 5.48,1.807 2.586,2.436L-1.756,3.379Z" style="fill:rgb(35,31,32);fill-rule:nonzero;"/>
            </g>
            <g transform="matrix(1,0,0,1,353.576,22.0899)">
                <path d="M0,2.535L-0.361,1.265L-0.725,2.534L0,2.535ZM-1.451,5.072L-1.637,5.706L-4.811,5.702L-1.623,-3.18L0.916,-3.177L4.076,5.715L0.902,5.71L0.721,5.075L-1.451,5.072Z" style="fill:rgb(35,31,32);fill-rule:nonzero;"/>
            </g>
            <g transform="matrix(1,0,0,1,362.44,26.3108)">
                <path d="M0,-3.951L-0.926,-0.257L0.305,0.052C1.127,0.257 1.691,-0.256 2,-1.487C2.309,-2.719 2.051,-3.437 1.23,-3.643L0,-3.951ZM-4.621,1.435L-2.463,-7.185L1.848,-6.106C4.721,-5.386 5.799,-3.59 5.078,-0.717C4.359,2.157 2.563,3.234 -0.312,2.514L-4.621,1.435Z" style="fill:rgb(35,31,32);fill-rule:nonzero;"/>
            </g>
            <g transform="matrix(1,0,0,1,377.43,29.961)">
                <path d="M0,-4.423L-1.16,-2.165L-5.113,-4.195L-5.404,-3.631L-1.451,-1.6L-2.611,0.659L-6.562,-1.372L-6.854,-0.808L-2.902,1.223L-4.062,3.481L-10.836,0L-6.775,-7.904L0,-4.423Z" style="fill:rgb(35,31,32);fill-rule:nonzero;"/>
            </g>
            <g transform="matrix(1,0,0,1,382.717,34.3548)">
                <path d="M0,-1.473L-0.881,-0.558L0.035,0.322C0.338,0.615 0.639,0.61 0.932,0.305C1.225,0 1.219,-0.299 0.914,-0.593L0,-1.473ZM-2.641,1.272L-4.402,3.101L-6.687,0.901L-0.527,-5.503L2.674,-2.423C4.504,-0.662 4.686,0.981 3.219,2.506C1.752,4.03 0.104,3.913 -1.727,2.152L-2.641,1.272Z" style="fill:rgb(35,31,32);fill-rule:nonzero;"/>
            </g>
            <g transform="matrix(1,0,0,1,385.906,45.4565)">
                <path d="M0,-6.752L3.77,-9.106L5.451,-6.415L1.684,-4.061C0.605,-3.387 0.293,-2.692 0.74,-1.975C1.189,-1.257 1.951,-1.234 3.027,-1.907L6.797,-4.261L8.479,-1.569L4.711,0.785C2.197,2.354 0.156,1.883 -1.412,-0.629C-2.982,-3.142 -2.512,-5.183 0,-6.752" style="fill:rgb(35,31,32);fill-rule:nonzero;"/>
            </g>
            <g transform="matrix(1,0,0,1,393.371,52.2774)">
                <path d="M0,-2.34L0.4,-1.135C0.533,-0.734 0.701,-0.566 0.902,-0.632C1.102,-0.699 1.137,-0.933 1.002,-1.335L0.604,-2.54L0,-2.34ZM-3.012,-1.34L-2.611,-0.135C-2.479,0.266 -2.311,0.434 -2.111,0.368C-1.91,0.3 -1.877,0.066 -2.01,-0.335L-2.41,-1.541L-3.012,-1.34ZM-6.422,-3.553L2.014,-6.352L3.412,-2.135C4.213,0.275 3.809,1.746 2.203,2.28C0.998,2.68 0.262,2.478 -0.004,1.675C0.262,2.478 -0.207,3.079 -1.412,3.479C-3.02,4.012 -4.223,3.074 -5.021,0.664L-6.422,-3.553Z" style="fill:rgb(35,31,32);fill-rule:nonzero;"/>
            </g>
            <g transform="matrix(1,0,0,1,398.461,64.303)">
                <path d="M0,-8.472L0.318,-5.315L-5.998,-4.676L-5.551,-0.255L-8.076,0L-8.844,-7.578L0,-8.472Z" style="fill:rgb(35,31,32);fill-rule:nonzero;"/>
            </g>
            <g transform="matrix(-0.998564,-0.053569,-0.053569,0.998564,390.376,64.3935)">
                <rect x="-8.792" y="0.236" width="8.886" height="3.175" style="fill:rgb(35,31,32);"/>
            </g>
            <g transform="matrix(1,0,0,1,391.85,73.6489)">
                <path d="M0,-0.669C-0.152,0.004 0.17,0.495 0.967,0.808L0.258,3.921C-2.172,3.159 -3.084,1.442 -2.477,-1.231C-1.818,-4.12 -0.047,-5.236 2.842,-4.579C5.73,-3.923 6.846,-2.15 6.189,0.738C5.582,3.412 4.018,4.567 1.496,4.202L2.205,1.089C3.059,1.153 3.561,0.849 3.713,0.175C3.902,-0.649 3.375,-1.203 2.139,-1.485C0.9,-1.767 0.187,-1.494 0,-0.669" style="fill:rgb(35,31,32);fill-rule:nonzero;"/>
            </g>
            <g transform="matrix(1,0,0,1,389.559,79.207)">
                <path d="M0,2.437L1.303,2.652L0.309,1.783L0,2.437ZM-1.678,0.044L-2.174,-0.393L-0.816,-3.262L5.863,3.403L4.777,5.699L-4.613,4.772L-3.258,1.902L-2.605,2.007L-1.678,0.044Z" style="fill:rgb(35,31,32);fill-rule:nonzero;"/>
            </g>
            <g transform="matrix(1,0,0,1,391.619,40.798)">
                <path d="M0,-1.363L0.836,0L-0.768,-0.065L0,-1.363Z" style="fill:rgb(35,31,32);fill-rule:nonzero;"/>
            </g>
        </g>
        <g transform="matrix(1,0,0,1,354.826002,100.262001)">
            <path d="M0,9.026L-3.172,8.967L-3.055,2.621L-7.496,2.538L-7.449,0L0.166,0.141L0,9.026Z" style="fill:rgb(35,31,32);fill-rule:nonzero;"/>
        </g>
    </g>
</svg>
